<?xml version="1.0" standalone="no"?><!DOCTYPE svg PUBLIC "-//W3C//DTD SVG 1.1//EN" "http://www.w3.org/Graphics/SVG/1.1/DTD/svg11.dtd"><svg t="1666772681992" class="icon" viewBox="0 0 1024 1024" version="1.1" xmlns="http://www.w3.org/2000/svg" p-id="2966" xmlns:xlink="http://www.w3.org/1999/xlink" width="200" height="200"><path d="M539.45679 110.814815L418.567901 355.851852l120.888889 127.604938V110.814815z" fill="#60C9C3" p-id="2967"></path><path d="M418.567901 355.851852l-270.518518 39.308642 391.407407 88.296296-120.888889-127.604938z" fill="#6ADDD6" p-id="2968"></path><path d="M660.444444 355.851852L539.45679 110.814815v372.641975l120.987654-127.604938z" fill="#6ADDD6" p-id="2969"></path><path d="M930.864198 395.160494l-270.419754-39.308642-120.987654 127.604938 391.407408-88.296296z" fill="#A9ECEB" p-id="2970"></path><path d="M735.111111 585.975309l195.753087-190.814815-391.407408 88.296296 195.654321 102.518519z" fill="#00A298" p-id="2971"></path><path d="M539.45679 483.45679L781.333333 855.308642l-46.222222-269.333333-195.654321-102.518519z" fill="#A9ECEB" p-id="2972"></path><path d="M148.049383 395.160494l195.753086 190.814815 195.654321-102.518519-391.407407-88.296296z" fill="#00A298" p-id="2973"></path><path d="M343.802469 585.975309L297.580247 855.308642l241.876543-371.851852-195.654321 102.518519z" fill="#6ADDD6" p-id="2974"></path><path d="M297.580247 855.308642l241.876543-127.209877V483.45679L297.580247 855.308642z" fill="#00C4B8" p-id="2975"></path><path d="M539.45679 483.45679v244.641975L781.333333 855.308642 539.45679 483.45679z" fill="#6ADDD6" p-id="2976"></path></svg>