<?xml version="1.0" encoding="utf-8"?>
<!-- Generator: Adobe Illustrator 24.0.1, SVG Export Plug-In . SVG Version: 6.00 Build 0)  -->
<svg version="1.1" id="图层_1" xmlns="http://www.w3.org/2000/svg" xmlns:xlink="http://www.w3.org/1999/xlink" x="0px" y="0px"
	 viewBox="0 0 200 200" style="enable-background:new 0 0 200 200;" xml:space="preserve">
<style type="text/css">
	.st0{fill:none;stroke:#000000;stroke-miterlimit:10;}
	.st1{fill:#FFFFFF;}
</style>
<path class="st0" d="M21.11,51.45c-0.65-1.92,3.48-5.05,9.23-7.01c5.75-1.95,10.94-1.98,11.59-0.07"/>
<g>
	<path class="st1" d="M31.56,55.33c-3.21,0-6.06-2.04-7.1-5.09c-0.64-1.9-0.51-3.93,0.37-5.73c0.89-1.8,2.42-3.14,4.31-3.78
		c0.78-0.27,1.59-0.4,2.41-0.4c3.21,0,6.07,2.04,7.1,5.09c0.64,1.9,0.51,3.93-0.37,5.73c-0.89,1.8-2.42,3.14-4.31,3.78
		C33.19,55.19,32.38,55.33,31.56,55.33z"/>
	<path d="M31.56,40.83c3,0,5.66,1.91,6.63,4.75c0.6,1.77,0.48,3.67-0.35,5.34c-0.83,1.68-2.26,2.93-4.03,3.53
		c-0.73,0.25-1.49,0.37-2.25,0.37c-3,0-5.66-1.91-6.63-4.75c-0.6-1.77-0.48-3.67,0.35-5.34c0.83-1.68,2.26-2.93,4.03-3.53
		C30.04,40.95,30.8,40.83,31.56,40.83 M31.56,39.83c-0.85,0-1.72,0.14-2.57,0.43c-4.18,1.42-6.42,5.96-5,10.14
		c1.13,3.33,4.24,5.43,7.57,5.43c0.85,0,1.72-0.14,2.57-0.43c4.18-1.42,6.42-5.96,5-10.14C38,41.92,34.89,39.83,31.56,39.83
		L31.56,39.83z"/>
</g>
<path class="st0" d="M41.93,44.37c0.65,1.92-3.48,5.05-9.23,7.01s-10.94,1.98-11.59,0.07"/>
</svg>
