<?xml version="1.0" standalone="no"?><!DOCTYPE svg PUBLIC "-//W3C//DTD SVG 1.1//EN" "http://www.w3.org/Graphics/SVG/1.1/DTD/svg11.dtd"><svg t="1666873185761" class="icon" viewBox="0 0 1024 1024" version="1.1" xmlns="http://www.w3.org/2000/svg" p-id="9358" xmlns:xlink="http://www.w3.org/1999/xlink" width="200" height="200"><path d="M426.484074 390.019422c0-15.423809-12.481162-27.904971-27.904971-27.904971h-303.244117c-15.423809 0-27.904971 12.481162-27.90497 27.904971 0 15.423809 12.481162 27.904971 27.90497 27.90497h303.244117c15.423809 0 27.904971-12.481162 27.904971-27.90497zM95.334986 268.972627h417.915178c15.423809 0 27.904971-12.481162 27.904971-27.904971 0-15.423809-12.481162-27.904971-27.904971-27.90497H95.334986c-15.423809 0-27.904971 12.481162-27.90497 27.90497 0.001024 15.424832 12.481162 27.904971 27.90497 27.904971zM95.334986 120.020862h552.778281c15.423809 0 27.904971-12.481162 27.904971-27.904971s-12.481162-27.904971-27.904971-27.904971H95.334986c-15.423809 0-27.904971 12.481162-27.90497 27.904971s12.481162 27.904971 27.90497 27.904971zM956.75326 315.816405c-13.270578-82.351097-83.359624-142.112211-166.663958-142.112212-8.992785 0-18.094101 0.708529-27.03262 2.153231a27.800534 27.800534 0 0 0-17.57704 10.436463L365.388836 675.251348a27.537396 27.537396 0 0 0-5.286319 11.363079L309.634185 925.902571a27.888588 27.888588 0 0 0 9.919401 27.577327 27.908042 27.908042 0 0 0 17.385573 6.07676c3.978818 0 7.984258-0.844705 11.717343-2.588382l223.100517-103.306958a27.617259 27.617259 0 0 0 10.846017-8.910874L951.765914 336.663734a27.890636 27.890636 0 0 0 4.987346-20.847329zM407.752092 731.09303l0.038907-0.00512c51.475835-8.366167 100.254755 26.896444 108.566657 78.454189a27.900875 27.900875 0 0 0 2.209544 7.262419l-142.822787 66.123538 32.007679-151.835026z m157.013838 43.278608c-19.585902-55.508919-70.115667-94.483114-128.249828-99.729502l256.836515-330.397555c27.668453-2.873022 54.960116 4.453901 77.687299 20.867806 22.134353 15.978754 37.436319 38.899451 43.721951 65.181564L564.76593 774.371638zM853.649031 376.772393c-11.936455-22.244933-28.85616-41.671109-49.934887-56.895259-20.761323-14.994801-44.136625-24.896796-68.601341-29.351721l47.23695-60.76657c55.26421-3.433087 103.470779 32.156143 117.01371 84.095797l-45.714432 62.917753z" fill="#3E3A39" p-id="9359"></path></svg>