<?xml version="1.0" standalone="no"?><!DOCTYPE svg PUBLIC "-//W3C//DTD SVG 1.1//EN" "http://www.w3.org/Graphics/SVG/1.1/DTD/svg11.dtd"><svg t="1666875915751" class="icon" viewBox="0 0 1024 1024" version="1.1" xmlns="http://www.w3.org/2000/svg" p-id="13811" xmlns:xlink="http://www.w3.org/1999/xlink" width="200" height="200"><path d="M949.7 618.8c0-66.1-30.4-138.2-79.7-190.2-2.7-182.8-151.7-330.1-335.1-330.1H429.4c-185.1 0-335.2 150.1-335.2 335.2V448c0 81 29 155.1 76.8 213 5.4 6.6 7.5 15.3 5.2 23.5l-29.6 103.8c-5 17.5 8.9 32.7 24.6 32.7 4.4 0 9-1.2 13.4-3.9l93.8-57.8c4-2.5 8.6-3.7 13.2-3.7 3.5 0 6.9 0.7 10.2 2.1 28.8 11.9 59.6 20.1 91.8 23.6 1 3 2.7 5.8 5.2 8.1 2.4 2.3 4.8 4.6 7.3 6.9 43.5 41.4 103.1 98 201.1 98h77.2c34.7 0 68.6-6.7 100.6-20l77.9 48c5.5 3.4 11.7 5.1 17.9 5.1 7.3 0 14.6-2.4 20.7-7 11.3-8.6 16.1-23 12.1-36.6L889 797.5c39.1-47.5 60.6-107.1 60.6-168.4v-10.3z m-658.1 96.9c-12 0-23.8 3.3-34 9.6L194.8 764l19.6-68.7c5.9-20.6 1.1-43-12.7-59.8-21.5-26-38.2-55-49.7-86.3-12-32.4-18-66.5-18-101.4v-14.3c0-39.9 7.8-78.6 23.2-115 14.9-35.2 36.2-66.8 63.3-93.9 27.1-27.1 58.7-48.4 93.9-63.3 36.4-15.4 75.1-23.2 115-23.2h105.5v0.2c39.9 0 78.6 7.8 115 23.2 35.2 14.9 66.8 36.2 93.9 63.3 27.1 27.1 48.4 58.7 63.3 93.9 15.4 36.4 23.2 75.1 23.2 115 0 41.8-8.2 82.4-24.3 120.5-15.6 36.9-37.9 70-66.4 98.4-28.5 28.5-61.6 50.8-98.4 66.4-38.1 16.1-78.7 24.3-120.5 24.3h-91.3c-38.5 0-76.3-7.6-112.4-22.5-8.1-3.4-16.7-5.1-25.4-5.1z m618.3-86.6c0 52.8-18.9 104.3-53.1 145l-0.1 0.1c-7.3 8.7-9.8 20.4-6.7 31.2l21.5 75.4-68.2-42c-9.4-5.8-21-6.6-31.2-2.2-27.9 11.9-57.3 18-87.7 18h-77.2c-36.3 0-69.4-9.2-101.2-28.2-21-12.5-39.3-28-55.7-43.1h70.4c174.9 0 319.8-128.6 345.4-296.3 8.6 12.6 16.3 26.1 22.7 40.2 13.8 30.4 21.1 62.1 21.1 91.7v10.2z" p-id="13812"></path><path d="M313 397c-27.4 0-49.7 22.3-49.7 49.7 0 27.4 22.3 49.7 49.7 49.7s49.7-22.3 49.7-49.7c0-27.4-22.3-49.7-49.7-49.7z m0 79.6c-16.5 0-29.9-13.4-29.9-29.9s13.4-29.9 29.9-29.9 29.9 13.4 29.9 29.9-13.4 29.9-29.9 29.9zM482.2 496.4c27.4 0 49.7-22.3 49.7-49.7 0-27.4-22.3-49.7-49.7-49.7-27.4 0-49.7 22.3-49.7 49.7 0 27.4 22.3 49.7 49.7 49.7z m0-79.6c16.5 0 29.9 13.4 29.9 29.9s-13.4 29.9-29.9 29.9-29.9-13.4-29.9-29.9 13.4-29.9 29.9-29.9zM651.3 496.4c27.4 0 49.7-22.3 49.7-49.7 0-27.4-22.3-49.7-49.7-49.7s-49.7 22.3-49.7 49.7c0 27.4 22.3 49.7 49.7 49.7z m0-79.6c16.5 0 29.9 13.4 29.9 29.9s-13.4 29.9-29.9 29.9-29.9-13.4-29.9-29.9 13.4-29.9 29.9-29.9z" p-id="13813"></path></svg>